<svg xmlns="http://www.w3.org/2000/svg" xmlns:xlink="http://www.w3.org/1999/xlink" viewBox="0 0 1507.3 1507.3"><defs><style>.cls-1{fill:url(#radial-gradient);}.cls-2{fill:#915eff;}</style><radialGradient id="radial-gradient" cx="1791.86" cy="940.88" r="0.5" gradientUnits="userSpaceOnUse"><stop offset="0"/><stop offset="0.86"/><stop offset="1"/></radialGradient></defs><g id="Layer_2" data-name="Layer 2"><g id="Layer_1-2" data-name="Layer 1"><circle class="cls-1" cx="753.65" cy="753.65" r="753.65"/><path class="cls-2" d="M1165.34,650c83.47,15.7,206.72,64.3,206.72,64.3V572.74A160.07,160.07,0,0,0,1235.22,414.4l-2.12-.31a348.47,348.47,0,0,0-88.24-1.73c-71.67,7.95-103.88,34.61-114.92,71.32-24.56,72.52,9.5,128.21,102.2,158A274.43,274.43,0,0,0,1165.34,650Z"/><path class="cls-2" d="M1143.9,809.06c-93-27.73-170-63.75-226.11-110.54-21.22,124.6-92.22,203.9-165.38,253.7-76.43,52-167,79.28-259.46,79.28h-49.9c20.16,187.13-28.35,190.28-28.35,190.28h586.89c-100.12-34.63-124.12-62.69-158.77-118.14-8.16-51.56,3.6-87.92,44.89-101.72,24.71-8.26,51.75-5.4,74.64,7,67.05,36.43,139.35,63.26,222.58,70.11,108.79,4.61,184.39-36.3,187-111.18.11-2.86.21-5.73.36-8.6,4.39-86-53-109.63-181.82-138.21C1174.85,817.6,1159.28,813.64,1143.9,809.06Z"/><path class="cls-2" d="M875.44,419.48q1.59,2.86,3.1,5.73c34.42-92.92,151.4-140,151.4-140H767.21C816.57,329.85,851.28,375.53,875.44,419.48Z"/><path class="cls-2" d="M640.4,928.63A334.56,334.56,0,0,0,510.15,285.84H279.87a85.37,85.37,0,0,0-85.37,85.37v85.37H508.87c90.22,0,165.21,73.82,165.09,164S600.4,784.21,510.15,784.21H194.5v352.51a85.37,85.37,0,0,0,85.37,85.37h0a85.37,85.37,0,0,0,85.37-85.37V955H510.15A332.5,332.5,0,0,0,640.4,928.63Z"/></g></g></svg>